<svg width="18" height="18" viewBox="0 0 18 18" fill="none" xmlns="http://www.w3.org/2000/svg">
<path d="M16.6879 17.1585H10.9653C10.86 17.1585 10.7746 17.0731 10.7746 16.9677V13.1526C10.7746 13.0473 10.86 12.9619 10.9653 12.9619H16.6879C16.7933 12.9619 16.8787 13.0473 16.8787 13.1526V16.9677C16.8787 17.0731 16.7933 17.1585 16.6879 17.1585ZM7.15025 17.1585H1.42764C1.32229 17.1585 1.23689 17.0731 1.23689 16.9677V9.33757C1.23689 9.23222 1.32229 9.14682 1.42764 9.14682H7.15025C7.2556 9.14682 7.341 9.23222 7.341 9.33757V16.9677C7.341 17.0731 7.2556 17.1585 7.15025 17.1585ZM16.6879 9.52832H10.9653C10.86 9.52832 10.7746 9.44292 10.7746 9.33757V1.70743C10.7746 1.60208 10.86 1.51668 10.9653 1.51668H16.6879C16.7933 1.51668 16.8787 1.60208 16.8787 1.70743V9.33757C16.8787 9.44292 16.7933 9.52832 16.6879 9.52832ZM7.15025 5.71325H1.42764C1.32229 5.71325 1.23689 5.62785 1.23689 5.5225V1.70743C1.23689 1.60208 1.32229 1.51668 1.42764 1.51668H7.15025C7.2556 1.51668 7.341 1.60208 7.341 1.70743V5.5225C7.341 5.62785 7.2556 5.71325 7.15025 5.71325Z" stroke="white" stroke-width="1.52603"/>
</svg>
