<svg width="20" height="18" viewBox="0 0 20 18" fill="none" xmlns="http://www.w3.org/2000/svg">
<path d="M10.0578 17.4249C9.4426 16.8794 8.7473 16.3119 8.01195 15.7082H8.00241C5.41293 13.5908 2.47819 11.1949 1.18202 8.32408C0.756177 7.41011 0.530502 6.41571 0.520091 5.40746C0.517248 4.02401 1.07212 2.69779 2.0593 1.72856C3.04649 0.75932 4.38266 0.228878 5.76582 0.257115C6.89187 0.258893 7.99367 0.584335 8.93996 1.19467C9.35578 1.46456 9.73199 1.79102 10.0578 2.16465C10.3854 1.79248 10.7617 1.46621 11.1765 1.19467C12.1224 0.584214 13.224 0.258754 14.3497 0.257115C15.7329 0.228878 17.0691 0.75932 18.0563 1.72856C19.0434 2.69779 19.5983 4.02401 19.5955 5.40746C19.5857 6.41732 19.36 7.41342 18.9335 8.32885C17.6374 11.1997 14.7036 13.5946 12.1141 15.7082L12.1046 15.7158C11.3683 16.3157 10.6739 16.8832 10.0587 17.4326L10.0578 17.4249ZM5.76582 2.16465C4.8774 2.15353 4.0205 2.49355 3.38141 3.11079C2.76564 3.71563 2.42149 4.54434 2.42756 5.40746C2.43844 6.14234 2.60487 6.86658 2.91597 7.53245C3.52782 8.77112 4.3534 9.89213 5.35475 10.8439C6.29993 11.7977 7.38723 12.721 8.32764 13.4973C8.58802 13.7119 8.85317 13.9284 9.11832 14.1449L9.28523 14.2813C9.53988 14.4892 9.80312 14.7048 10.0578 14.9165L10.0702 14.9051L10.0759 14.9003H10.0816L10.0902 14.8936H10.095H10.0997L10.1169 14.8793L10.156 14.8479L10.1627 14.8421L10.1732 14.8345H10.1789L10.1875 14.8269L10.8208 14.3071L10.9867 14.1707C11.2548 13.9523 11.5199 13.7358 11.7803 13.5212C12.7207 12.7448 13.8089 11.8225 14.7541 10.864C15.7556 9.91264 16.5812 8.79192 17.1929 7.55344C17.5096 6.8818 17.6784 6.14997 17.688 5.40746C17.6919 4.54701 17.3479 3.72148 16.7342 3.11842C16.0963 2.49839 15.2392 2.15557 14.3497 2.16465C13.2643 2.15543 12.2266 2.61041 11.498 3.41504L10.0578 5.0746L8.61759 3.41504C7.88897 2.61041 6.85129 2.15543 5.76582 2.16465Z" fill="white"/>
</svg>
