<svg width="108" height="23" viewBox="0 0 108 23" fill="none" xmlns="http://www.w3.org/2000/svg">
<path d="M16.0016 22.2703H15.0795L13.5986 20.2166C13.2353 20.5426 12.8488 20.8499 12.4389 21.1387C12.0384 21.4181 11.6146 21.6649 11.1676 21.8791C10.7205 22.0841 10.2594 22.247 9.78441 22.3681C9.31871 22.4892 8.84369 22.5498 8.35935 22.5498C7.30685 22.5498 6.3149 22.3728 5.38348 22.0189C4.46139 21.6649 3.65106 21.1526 2.9525 20.482C2.26325 19.8021 1.71837 18.9731 1.31786 17.9951C0.917356 17.0172 0.717102 15.9041 0.717102 14.656C0.717102 13.4918 0.917356 12.4253 1.31786 11.4566C1.71837 10.4786 2.26325 9.64036 2.9525 8.9418C3.65106 8.24324 4.46139 7.70302 5.38348 7.32114C6.3149 6.92995 7.30685 6.73435 8.35935 6.73435C8.84369 6.73435 9.32337 6.79489 9.79839 6.91598C10.2734 7.03706 10.7345 7.20472 11.1815 7.41894C11.6286 7.63317 12.0524 7.88465 12.4529 8.17339C12.8627 8.46213 13.2446 8.77415 13.5986 9.10946L15.0795 7.33511H16.0016V22.2703ZM12.1595 14.656C12.1595 14.1344 12.0571 13.6315 11.8522 13.1471C11.6566 12.6535 11.3864 12.2204 11.0418 11.8478C10.6972 11.4659 10.292 11.1632 9.82633 10.9397C9.36994 10.7068 8.88094 10.5904 8.35935 10.5904C7.83776 10.5904 7.34411 10.6789 6.8784 10.8559C6.42201 11.0328 6.0215 11.2936 5.67688 11.6382C5.34157 11.9829 5.07612 12.4113 4.88052 12.9236C4.68492 13.4266 4.58713 14.004 4.58713 14.656C4.58713 15.308 4.68492 15.8902 4.88052 16.4024C5.07612 16.9054 5.34157 17.3292 5.67688 17.6738C6.0215 18.0184 6.42201 18.2792 6.8784 18.4562C7.34411 18.6332 7.83776 18.7216 8.35935 18.7216C8.88094 18.7216 9.36994 18.6099 9.82633 18.3863C10.292 18.1535 10.6972 17.8508 11.0418 17.4782C11.3864 17.0963 11.6566 16.6632 11.8522 16.1789C12.0571 15.6852 12.1595 15.1776 12.1595 14.656Z" fill="white"/>
<path d="M29.9169 20.5239C29.6096 20.8034 29.2789 21.0688 28.925 21.3203C28.5803 21.5625 28.2171 21.7767 27.8352 21.963C27.4533 22.1399 27.0575 22.2796 26.6477 22.3821C26.2472 22.4939 25.8373 22.5498 25.4182 22.5498C24.4961 22.5498 23.6299 22.3868 22.8195 22.0608C22.0092 21.7348 21.2967 21.2737 20.682 20.6776C20.0765 20.0722 19.5969 19.341 19.2429 18.4841C18.8983 17.6179 18.726 16.6493 18.726 15.5781V7.30717H22.5262V15.5781C22.5262 16.0811 22.6007 16.5328 22.7497 16.9333C22.908 17.3245 23.1176 17.6552 23.3784 17.9253C23.6392 18.1954 23.9419 18.4003 24.2865 18.54C24.6405 18.6797 25.0177 18.7496 25.4182 18.7496C25.8094 18.7496 26.1773 18.6611 26.5219 18.4841C26.8759 18.2979 27.1832 18.0557 27.444 17.7576C27.7048 17.4596 27.9097 17.1243 28.0588 16.7517C28.2078 16.3698 28.2823 15.9786 28.2823 15.5781V7.30717H32.0964V22.2703H31.1743L29.9169 20.5239Z" fill="white"/>
<path d="M49.4766 22.2703H48.5545L47.0736 20.2166C46.7103 20.5426 46.3238 20.8499 45.914 21.1387C45.5134 21.4181 45.0897 21.6649 44.6426 21.8791C44.1955 22.0841 43.7344 22.247 43.2594 22.3681C42.7937 22.4892 42.3187 22.5498 41.8344 22.5498C40.7819 22.5498 39.7899 22.3542 38.8585 21.963C37.9364 21.5625 37.1261 21.0129 36.4275 20.3144C35.7383 19.6065 35.1934 18.7729 34.7929 17.8135C34.3924 16.8448 34.1921 15.7924 34.1921 14.656C34.1921 13.529 34.3924 12.4812 34.7929 11.5125C35.1934 10.5438 35.7383 9.70556 36.4275 8.99769C37.1261 8.28981 37.9364 7.73562 38.8585 7.33511C39.7899 6.93461 40.7819 6.73435 41.8344 6.73435C42.1697 6.73435 42.5143 6.7623 42.8682 6.81818C43.2315 6.87406 43.5808 6.96721 43.9161 7.0976C44.2607 7.21869 44.582 7.38169 44.8801 7.5866C45.1781 7.79151 45.4296 8.04299 45.6345 8.34104V1.35544H49.4766V22.2703ZM45.6345 14.656C45.6345 14.1344 45.5321 13.6315 45.3272 13.1471C45.1316 12.6535 44.8615 12.2204 44.5168 11.8478C44.1722 11.4659 43.767 11.1632 43.3013 10.9397C42.8449 10.7068 42.356 10.5904 41.8344 10.5904C41.3128 10.5904 40.8191 10.6835 40.3534 10.8698C39.897 11.0561 39.4965 11.3262 39.1519 11.6802C38.8166 12.0248 38.5511 12.4486 38.3555 12.9515C38.1599 13.4545 38.0621 14.0227 38.0621 14.656C38.0621 15.2056 38.1599 15.7272 38.3555 16.2208C38.5511 16.7145 38.8166 17.1476 39.1519 17.5201C39.4965 17.8927 39.897 18.1861 40.3534 18.4003C40.8191 18.6145 41.3128 18.7216 41.8344 18.7216C42.356 18.7216 42.8449 18.6099 43.3013 18.3863C43.767 18.1535 44.1722 17.8508 44.5168 17.4782C44.8615 17.0963 45.1316 16.6632 45.3272 16.1789C45.5321 15.6852 45.6345 15.1776 45.6345 14.656Z" fill="white"/>
<path d="M56.8953 3.24155C56.8953 3.59549 56.8255 3.92614 56.6858 4.23351C56.5554 4.54087 56.3737 4.81098 56.1409 5.04384C55.908 5.26738 55.6333 5.449 55.3166 5.58871C55.0092 5.71911 54.6786 5.78431 54.3246 5.78431C53.9707 5.78431 53.6354 5.71911 53.3187 5.58871C53.0113 5.449 52.7412 5.26738 52.5084 5.04384C52.2848 4.81098 52.1032 4.54087 51.9635 4.23351C51.8331 3.92614 51.7679 3.59549 51.7679 3.24155C51.7679 2.89693 51.8331 2.57093 51.9635 2.26357C52.1032 1.94689 52.2848 1.67678 52.5084 1.45324C52.7412 1.22038 53.0113 1.03876 53.3187 0.90836C53.6354 0.768648 53.9707 0.698792 54.3246 0.698792C54.6786 0.698792 55.0092 0.768648 55.3166 0.90836C55.6333 1.03876 55.908 1.22038 56.1409 1.45324C56.3737 1.67678 56.5554 1.94689 56.6858 2.26357C56.8255 2.57093 56.8953 2.89693 56.8953 3.24155ZM56.2387 22.2703H52.3966V7.30717H56.2387V22.2703Z" fill="white"/>
<path d="M66.6612 22.2703C65.7391 22.2703 64.8729 22.098 64.0625 21.7534C63.2522 21.3995 62.5397 20.9198 61.925 20.3144C61.3195 19.6996 60.8399 18.9871 60.4859 18.1768C60.1413 17.3664 59.969 16.5002 59.969 15.5781V11.1353H58.1108V7.33511H59.969V1.35544H63.7692V7.33511H69.5532V11.1353H63.7692V15.5781C63.7692 15.9786 63.8437 16.3559 63.9927 16.7098C64.1417 17.0544 64.3466 17.3571 64.6074 17.6179C64.8682 17.8787 65.1756 18.0883 65.5295 18.2466C65.8835 18.3957 66.2607 18.4702 66.6612 18.4702H69.5532V22.2703H66.6612Z" fill="white"/>
<path d="M76.2035 3.24155C76.2035 3.59549 76.1337 3.92614 75.994 4.23351C75.8636 4.54087 75.6819 4.81098 75.4491 5.04384C75.2162 5.26738 74.9415 5.449 74.6248 5.58871C74.3174 5.71911 73.9868 5.78431 73.6328 5.78431C73.2789 5.78431 72.9436 5.71911 72.6269 5.58871C72.3195 5.449 72.0494 5.26738 71.8166 5.04384C71.593 4.81098 71.4114 4.54087 71.2717 4.23351C71.1413 3.92614 71.0761 3.59549 71.0761 3.24155C71.0761 2.89693 71.1413 2.57093 71.2717 2.26357C71.4114 1.94689 71.593 1.67678 71.8166 1.45324C72.0494 1.22038 72.3195 1.03876 72.6269 0.90836C72.9436 0.768648 73.2789 0.698792 73.6328 0.698792C73.9868 0.698792 74.3174 0.768648 74.6248 0.90836C74.9415 1.03876 75.2162 1.22038 75.4491 1.45324C75.6819 1.67678 75.8636 1.94689 75.994 2.26357C76.1337 2.57093 76.2035 2.89693 76.2035 3.24155ZM75.5469 22.2703H71.7048V7.30717H75.5469V22.2703Z" fill="white"/>
<path d="M91.5439 10.283L88.7497 13.0913C88.61 12.7001 88.419 12.3508 88.1768 12.0434C87.9347 11.7267 87.6599 11.4613 87.3525 11.2471C87.0545 11.0328 86.7285 10.8698 86.3746 10.7581C86.0206 10.6463 85.6574 10.5904 85.2848 10.5904C84.7632 10.5904 84.2696 10.6975 83.8039 10.9117C83.3475 11.126 82.947 11.4287 82.6023 11.8199C82.267 12.2018 82.0016 12.6581 81.806 13.1891C81.6104 13.72 81.5126 14.3067 81.5126 14.9494C81.5126 15.471 81.6104 15.96 81.806 16.4164C82.0016 16.8728 82.267 17.2733 82.6023 17.6179C82.947 17.9625 83.3475 18.2327 83.8039 18.4283C84.2696 18.6238 84.7632 18.7216 85.2848 18.7216C85.6574 18.7216 86.016 18.6704 86.3606 18.568C86.7052 18.4655 87.0266 18.3211 87.3246 18.1349C87.632 17.9393 87.9021 17.7064 88.1349 17.4363C88.3771 17.1569 88.5727 16.8495 88.7217 16.5142L91.516 19.3224C91.162 19.8254 90.7522 20.2771 90.2865 20.6776C89.8301 21.0781 89.3318 21.4181 88.7916 21.6975C88.2607 21.9769 87.6972 22.1865 87.1011 22.3262C86.5143 22.4752 85.9089 22.5498 85.2848 22.5498C84.2323 22.5498 83.2404 22.3542 82.3089 21.963C81.3868 21.5625 80.5765 21.0176 79.878 20.3283C79.1887 19.6391 78.6438 18.8334 78.2433 17.9113C77.8428 16.9892 77.6426 16.0019 77.6426 14.9494C77.6426 13.8038 77.8428 12.7327 78.2433 11.736C78.6438 10.7394 79.1887 9.87322 79.878 9.1374C80.5765 8.39227 81.3868 7.80548 82.3089 7.37703C83.2404 6.94858 84.2323 6.73435 85.2848 6.73435C85.9089 6.73435 86.5189 6.81352 87.115 6.97186C87.7205 7.1302 88.2933 7.36306 88.8335 7.67042C89.383 7.96848 89.886 8.33638 90.3424 8.77415C90.8081 9.21191 91.2086 9.71488 91.5439 10.283Z" fill="white"/>
<path d="M107.681 22.2703H106.759L105.278 20.2166C104.914 20.5426 104.528 20.8499 104.118 21.1387C103.717 21.4181 103.294 21.6649 102.847 21.8791C102.4 22.0841 101.938 22.247 101.463 22.3681C100.998 22.4892 100.523 22.5498 100.038 22.5498C98.9859 22.5498 97.9939 22.3728 97.0625 22.0189C96.1404 21.6649 95.3301 21.1526 94.6315 20.482C93.9423 19.8021 93.3974 18.9731 92.9969 17.9951C92.5964 17.0172 92.3962 15.9041 92.3962 14.656C92.3962 13.4918 92.5964 12.4253 92.9969 11.4566C93.3974 10.4786 93.9423 9.64036 94.6315 8.9418C95.3301 8.24324 96.1404 7.70302 97.0625 7.32114C97.9939 6.92995 98.9859 6.73435 100.038 6.73435C100.523 6.73435 101.002 6.79489 101.477 6.91598C101.952 7.03706 102.414 7.20472 102.861 7.41894C103.308 7.63317 103.731 7.88465 104.132 8.17339C104.542 8.46213 104.924 8.77415 105.278 9.10946L106.759 7.33511H107.681V22.2703ZM103.839 14.656C103.839 14.1344 103.736 13.6315 103.531 13.1471C103.336 12.6535 103.065 12.2204 102.721 11.8478C102.376 11.4659 101.971 11.1632 101.505 10.9397C101.049 10.7068 100.56 10.5904 100.038 10.5904C99.5168 10.5904 99.0232 10.6789 98.5575 10.8559C98.1011 11.0328 97.7006 11.2936 97.3559 11.6382C97.0206 11.9829 96.7552 12.4113 96.5596 12.9236C96.364 13.4266 96.2662 14.004 96.2662 14.656C96.2662 15.308 96.364 15.8902 96.5596 16.4024C96.7552 16.9054 97.0206 17.3292 97.3559 17.6738C97.7006 18.0184 98.1011 18.2792 98.5575 18.4562C99.0232 18.6332 99.5168 18.7216 100.038 18.7216C100.56 18.7216 101.049 18.6099 101.505 18.3863C101.971 18.1535 102.376 17.8508 102.721 17.4782C103.065 17.0963 103.336 16.6632 103.531 16.1789C103.736 15.6852 103.839 15.1776 103.839 14.656Z" fill="white"/>
</svg>
