<svg width="40" height="40" viewBox="0 0 40 40" fill="none" xmlns="http://www.w3.org/2000/svg">
<path d="M19.6334 39.1731H24.3621V31.3672C24.1415 31.3501 23.9105 31.327 23.6877 31.2989C23.316 31.2641 22.9443 31.2128 22.5782 31.15C22.3725 31.1213 22.1723 31.0871 21.9716 31.0468C21.8398 31.0182 21.7085 30.9956 21.5767 30.9669C21.3308 30.9211 21.0848 30.8638 20.8394 30.8014C20.0471 30.6134 19.2661 30.3805 18.5002 30.1039C18.2145 30.0013 17.9287 29.8927 17.6426 29.7779C17.4596 29.7035 17.2765 29.6235 17.0912 29.5436C16.3418 29.2179 15.6107 28.8514 14.9014 28.4456V28.5372C14.2332 28.1803 13.6077 27.7488 13.0369 27.2506C13.0314 27.2506 13.0253 27.2446 13.0198 27.2391C12.5108 26.879 12.0189 26.4957 11.5386 26.0953C11.0699 25.7005 10.6177 25.2891 10.1831 24.8546C9.96254 24.6373 9.74196 24.4134 9.53737 24.1851C9.52518 24.1789 9.51514 24.169 9.50869 24.157C9.30245 23.9364 9.10834 23.7219 8.91974 23.4952C8.5078 23.0259 8.12454 22.5456 7.76168 22.0427C7.56702 21.7797 7.38394 21.5105 7.20141 21.2359C7.05803 21.0247 6.92568 20.8185 6.79498 20.6012C6.78947 20.5957 6.78947 20.5902 6.78396 20.5841C6.65199 20.3782 6.52604 20.1666 6.40621 19.9494C6.09188 19.3946 5.79465 18.8228 5.52388 18.2399C5.40973 17.9939 5.29502 17.748 5.193 17.496C4.98125 16.993 4.78658 16.484 4.61508 15.9695C4.55221 15.7864 4.49542 15.6034 4.43807 15.4181C4.32337 15.0525 4.21748 14.6808 4.12373 14.3085C4.08899 14.1773 4.0548 14.04 4.02613 13.9087C3.96326 13.6628 3.91198 13.4224 3.8607 13.1764C3.80886 12.9079 3.75757 12.6387 3.71731 12.3702C3.66603 12.073 3.62026 11.7697 3.58607 11.4724C3.55188 11.221 3.53093 10.9761 3.50611 10.7291C3.49453 10.6259 3.48847 10.5289 3.48296 10.4258C3.47429 10.371 3.46858 10.3157 3.46585 10.2603C3.45427 10.123 3.44877 9.98459 3.4427 9.84838C3.41991 9.4767 3.4085 9.09934 3.4085 8.71625C1.92072 10.9232 0.900125 13.4111 0.409447 16.027C-0.0812285 18.6429 -0.0316131 21.3315 0.555271 23.9276C0.560785 23.9386 0.560796 23.9557 0.566311 23.9673C1.37525 27.4888 3.14182 30.718 5.6709 33.2985C8.19992 35.8789 11.3931 37.7101 14.8975 38.5896C16.4458 38.98 18.0367 39.176 19.6334 39.1731Z" fill="white"/>
<path d="M24.3624 31.367V21.7717C24.3692 21.1464 24.2518 20.5259 24.0172 19.9463C23.7826 19.3666 23.4353 18.8393 22.9955 18.3947C22.5557 17.9501 22.0321 17.5972 21.455 17.3563C20.8779 17.1154 20.2587 16.9914 19.6334 16.9914C19.008 16.9914 18.3889 17.1154 17.8118 17.3563C17.2347 17.5972 16.7111 17.9501 16.2713 18.3947C15.8315 18.8393 15.4842 19.3666 15.2496 19.9463C15.015 20.5259 14.8977 21.1464 14.9044 21.7717V28.4443C17.8033 30.1033 21.0329 31.1013 24.3624 31.367Z" fill="white"/>
<path d="M13.0234 27.2384C11.9302 26.2931 11.0534 25.1236 10.4524 23.8092C9.85152 22.4948 9.54066 21.0664 9.54094 19.6212C9.54132 18.9512 9.60634 18.2829 9.73511 17.6255C9.86911 16.9731 10.0663 16.3354 10.3241 15.7213C11.0878 13.9106 12.3612 12.3609 13.9895 11.2606C13.9895 11.2551 13.9896 11.2551 13.9956 11.2551C14.2587 11.0091 14.5327 10.7687 14.8134 10.5382C14.8177 10.5377 14.8217 10.5355 14.8245 10.5321C17.4387 8.36414 20.5428 6.86744 23.8672 6.17222C27.1915 5.47698 30.6353 5.60422 33.8992 6.54291C34.0095 6.56552 34.1199 6.59806 34.2302 6.63445C30.9119 2.89785 26.2871 0.576065 21.3082 0.147336C16.3293 -0.281393 11.3757 1.21558 7.46753 4.32992C5.90233 5.57905 4.53523 7.05791 3.41266 8.71619C3.4214 13.5055 4.94474 18.1693 7.76476 22.0404C9.2276 24.0439 11.0032 25.7989 13.0234 27.2384Z" fill="white"/>
<path d="M39.1795 38.6928V29.8464L39.1772 29.8459L39.1754 29.8445L39.1742 29.8426L39.174 29.8403H39.1679C39.0196 29.7432 38.8706 29.6517 38.7267 29.5486C38.3776 29.328 38.0401 29.0914 37.7087 28.851C36.8776 28.2456 36.0868 27.5867 35.3414 26.8784C35.1985 26.7466 35.0551 26.6093 34.9123 26.472C34.8897 26.4494 34.8666 26.4207 34.844 26.3976C34.6377 26.1979 34.4435 25.9978 34.2549 25.791C34.0487 25.5737 33.8486 25.3498 33.6484 25.1292C33.4885 24.9406 33.3225 24.7465 33.1626 24.5519C33.0594 24.4261 32.9569 24.2943 32.8538 24.1631C32.7677 24.06 32.6883 23.9513 32.6077 23.8482C32.4875 23.6883 32.3674 23.5284 32.2532 23.3679C32.213 23.3127 32.1733 23.2576 32.1391 23.208C31.9902 23.0023 31.8412 22.7905 31.7045 22.5732C31.6842 22.548 31.6658 22.5212 31.6494 22.4933C31.495 22.2589 31.346 22.024 31.2032 21.7841C31.0659 21.5723 30.9402 21.3611 30.8261 21.1433C30.7742 21.0634 30.7284 20.9779 30.6827 20.8918C30.563 20.6862 30.4483 20.4805 30.3518 20.2742C30.3402 20.2516 30.3286 20.2345 30.3176 20.2114C30.1858 19.9715 30.0656 19.7255 29.9514 19.4796C29.9514 19.468 29.9459 19.4625 29.9399 19.4509C29.8544 19.2855 29.7799 19.12 29.7054 18.9546C29.7225 19.1752 29.7281 19.4007 29.7281 19.6235V29.2354C29.7286 29.8788 29.7938 30.5207 29.9228 31.1511C30.3618 33.2817 31.5225 35.1954 33.2089 36.5694C34.8953 37.9434 37.0042 38.6934 39.1795 38.6928Z" fill="white"/>
<path d="M39.1793 29.8462V19.6212C39.1783 15.0692 37.5864 10.6607 34.6789 7.15831C34.536 6.98129 34.3871 6.80372 34.2327 6.63222C34.1423 6.602 34.0502 6.57713 33.9569 6.55777C33.944 6.54713 33.9279 6.54112 33.9112 6.54068H33.9002C33.6884 6.47781 33.4712 6.42046 33.2539 6.36311C33.2197 6.35759 33.1794 6.34601 33.1392 6.33498C32.9335 6.28315 32.7217 6.23738 32.5105 6.19161C32.2072 6.12323 31.9039 6.06588 31.5951 6.01459C31.4296 5.98591 31.2642 5.9633 31.0988 5.93463C30.8986 5.90595 30.6929 5.88334 30.4872 5.86018C30.298 5.83702 30.1095 5.81993 29.9209 5.80504C29.8238 5.79952 29.7262 5.78794 29.6237 5.78243C29.1318 5.74824 28.6343 5.73059 28.1347 5.73059C28.0084 5.73059 27.8827 5.73059 27.763 5.73666C27.6527 5.73666 27.5512 5.74217 27.4426 5.74824C27.3834 5.74421 27.3239 5.74603 27.265 5.75375C27.1851 5.75375 27.1051 5.75927 27.0252 5.76533C26.8134 5.77085 26.6022 5.78794 26.3904 5.80504C26.3044 5.8111 26.2189 5.81662 26.1329 5.8282C25.8643 5.85081 25.6013 5.87948 25.3322 5.91974C25.1668 5.94235 24.9953 5.96551 24.8293 5.99363C24.7979 5.99386 24.7669 5.99987 24.7377 6.01128C24.612 6.02838 24.4803 6.05099 24.3518 6.07415C23.8659 6.15962 23.3795 6.26826 22.9052 6.39399C22.7619 6.42873 22.619 6.46844 22.4817 6.50869C21.7112 6.7258 20.9533 6.98537 20.2114 7.28624C20.0002 7.37227 19.794 7.46381 19.5883 7.56197C19.1306 7.76215 18.6845 7.98494 18.2444 8.22372C18.0613 8.31526 17.8843 8.41783 17.7067 8.52095C17.1977 8.81267 16.7003 9.12755 16.2178 9.46449C15.9774 9.63599 15.7374 9.80749 15.5009 9.98506C15.2775 10.1566 15.0548 10.3336 14.8392 10.5112C14.8331 10.5202 14.8251 10.5279 14.816 10.5338C14.7531 10.5795 14.6963 10.6314 14.6334 10.6827C14.4128 10.8657 14.1983 11.0598 13.9871 11.2545C15.651 10.1266 17.6156 9.52482 19.6258 9.52736H19.6313C20.955 9.52736 22.2658 9.78847 23.4885 10.2958C24.7111 10.803 25.8217 11.5466 26.7566 12.4837C28.4872 14.2127 29.5316 16.5109 29.6959 18.9517C29.7703 19.1171 29.8447 19.2826 29.9302 19.448C29.9363 19.4596 29.9418 19.4651 29.9418 19.4767C30.062 19.7226 30.1817 19.9686 30.308 20.2085C30.319 20.2316 30.3306 20.2487 30.3422 20.2713C30.4447 20.4776 30.5594 20.6833 30.673 20.889C30.7188 20.975 30.7646 21.0605 30.8164 21.1404C30.9361 21.361 31.0618 21.5695 31.1936 21.7812C31.3364 22.0211 31.4854 22.256 31.6398 22.4904C31.6562 22.5184 31.6746 22.5451 31.6949 22.5704C31.8316 22.7821 31.9751 22.9933 32.1295 23.2051C32.1637 23.2564 32.2033 23.3082 32.2436 23.365C32.3577 23.5255 32.4779 23.6854 32.5982 23.8453C32.6781 23.9484 32.7581 24.0571 32.8441 24.1602C32.9412 24.2914 33.0443 24.4232 33.1529 24.549C33.3128 24.7436 33.4789 24.935 33.6388 25.1263C33.839 25.3469 34.0391 25.5725 34.2454 25.7881C34.434 25.9943 34.6281 26.1945 34.8343 26.3947C34.8569 26.4179 34.8801 26.4465 34.9027 26.4691C35.0456 26.6065 35.1889 26.7449 35.3317 26.8756C36.0772 27.5838 36.868 28.2427 37.6991 28.8481C38.03 29.0941 38.3681 29.3284 38.7172 29.5518C38.86 29.6488 39.0088 29.7459 39.1583 29.8374H39.1643C39.1632 29.8394 39.1628 29.8417 39.1634 29.844C39.1639 29.8462 39.1654 29.8481 39.1674 29.8493C39.1693 29.8504 39.1717 29.8508 39.1739 29.8502C39.1762 29.8497 39.1781 29.8482 39.1793 29.8462Z" fill="white"/>
<g style="mix-blend-mode:multiply" opacity="0.1">
<g style="mix-blend-mode:multiply" opacity="0.1">
<path d="M9.53997 19.6221C9.54036 18.9521 9.60537 18.2838 9.73408 17.6264C8.34442 14.1726 7.45216 9.82055 7.46981 4.33081C5.90462 5.57994 4.53755 7.05881 3.41498 8.71708C3.42372 13.5064 4.94706 18.1702 7.76705 22.0413C9.2289 24.0445 11.0034 25.7995 13.0224 27.2393C11.9293 26.294 11.0524 25.1245 10.4515 23.8101C9.85055 22.4957 9.5397 21.0673 9.53997 19.6221Z" fill="white"/>
</g>
</g>
<g style="mix-blend-mode:multiply" opacity="0.16">
<g style="mix-blend-mode:multiply" opacity="0.16">
<path d="M24.3622 31.3672V30.4982C20.8086 29.6717 17.5422 27.906 14.9042 25.3856V28.4451C17.8032 30.1038 21.0328 31.1016 24.3622 31.3672Z" fill="white"/>
</g>
</g>
<g style="mix-blend-mode:multiply" opacity="0.1">
<g style="mix-blend-mode:multiply" opacity="0.1">
<path d="M37.7502 12.2958C36.9998 10.4348 35.9637 8.70222 34.6792 7.16063C34.5363 6.98361 34.3874 6.80604 34.233 6.63454C34.1426 6.60432 34.0506 6.57945 33.9572 6.56009C33.9443 6.54945 33.9282 6.54344 33.9115 6.543H33.9005C33.6887 6.48013 33.4715 6.42278 33.2542 6.36543C33.22 6.35991 33.1798 6.34833 33.1395 6.3373C32.9338 6.28547 32.722 6.2397 32.5108 6.19393C32.2075 6.12555 31.9042 6.06819 31.5954 6.01691C31.4299 5.98823 31.2645 5.96562 31.0991 5.93695C30.8989 5.90827 30.6932 5.88566 30.4875 5.8625C30.2983 5.83934 30.1098 5.82225 29.9212 5.80736C29.8242 5.80184 29.7265 5.79026 29.624 5.78475C29.1321 5.75056 28.6346 5.73291 28.135 5.73291C28.0087 5.73291 27.883 5.73291 27.7633 5.73898C27.653 5.73898 27.5516 5.74449 27.4429 5.75056C27.3837 5.74653 27.3242 5.74841 27.2653 5.75607C27.1854 5.75607 27.1054 5.76159 27.0255 5.76765C26.8137 5.77317 26.6025 5.79026 26.3907 5.80736C26.3047 5.81342 26.2192 5.81894 26.1332 5.83052C25.8647 5.85313 25.6016 5.8818 25.3325 5.92206C25.1671 5.94467 24.9956 5.96783 24.8296 5.99595C24.7983 5.99623 24.7672 6.00219 24.738 6.0136C24.6123 6.0307 24.4806 6.05331 24.3521 6.07647C23.8662 6.16194 23.3798 6.27058 22.9055 6.39631C22.7622 6.43105 22.6193 6.47076 22.482 6.51101C21.7115 6.72812 20.9536 6.98774 20.2117 7.28856C20.0005 7.37459 19.7943 7.46613 19.5886 7.56429C19.1309 7.76447 18.6848 7.98726 18.2447 8.22604C18.0616 8.31758 17.8846 8.42015 17.707 8.52327C17.198 8.81499 16.7006 9.12987 16.2181 9.46681C15.9777 9.63831 15.7377 9.80981 15.5012 9.98738C15.2778 10.1589 15.0551 10.3359 14.8395 10.5135C14.8334 10.5225 14.8254 10.5302 14.8163 10.5361C14.7534 10.5818 14.6966 10.6337 14.6337 10.685C14.4132 10.8681 14.1986 11.0622 13.9874 11.2568C15.6513 10.1289 17.6159 9.52714 19.6261 9.52967H19.6316C23.8861 8.53706 30.0679 8.42015 37.4276 12.143C37.5384 12.1871 37.6487 12.239 37.7502 12.2958Z" fill="white"/>
</g>
</g>
<g style="mix-blend-mode:multiply" opacity="0.1">
<g style="mix-blend-mode:multiply" opacity="0.1">
<path d="M39.1793 35.662V29.8464C39.1785 29.8464 39.1778 29.8462 39.177 29.8459C39.1763 29.8456 39.1757 29.8452 39.1752 29.8445C39.1747 29.844 39.1742 29.8433 39.174 29.8426C39.1738 29.8418 39.1737 29.8411 39.1738 29.8403H39.1677C39.0194 29.7432 38.8704 29.6517 38.7265 29.5486C38.3774 29.328 38.0399 29.0914 37.7085 28.851C36.8774 28.2456 36.0866 27.5867 35.3412 26.8784C35.1984 26.7466 35.0549 26.6093 34.9121 26.472C34.8895 26.4494 34.8664 26.4207 34.8438 26.3976C34.6375 26.1979 34.4434 25.9978 34.2548 25.791C34.0485 25.5737 33.8484 25.3498 33.6482 25.1292C33.4883 24.9406 33.3223 24.7465 33.1624 24.5519C33.0593 24.4261 32.9567 24.2943 32.8536 24.1631C32.7675 24.06 32.6881 23.9513 32.6076 23.8482C32.4873 23.6883 32.3672 23.5284 32.253 23.3679C32.2128 23.3127 32.1731 23.2576 32.1389 23.208C31.99 23.0023 31.841 22.7905 31.7043 22.5732C31.684 22.548 31.6656 22.5212 31.6492 22.4933C31.4948 22.2589 31.3458 22.024 31.203 21.7841C31.0657 21.5723 30.94 21.3611 30.8259 21.1433C30.774 21.0634 30.7283 20.9779 30.6825 20.8918C30.5628 20.6862 30.4481 20.4805 30.3516 20.2742C30.34 20.2516 30.3285 20.2345 30.3174 20.2114C30.1856 19.9715 30.0654 19.7255 29.9513 19.4796C29.9513 19.468 29.9457 19.4625 29.9397 19.4509C29.8542 19.2855 29.7797 19.12 29.7053 18.9546C29.7224 19.1752 29.7279 19.4007 29.7279 19.6235V22.1547C31.6902 27.1664 34.78 31.6589 38.7579 35.2843C38.8936 35.4116 39.0365 35.5363 39.1793 35.662Z" fill="white"/>
</g>
</g>
<g style="mix-blend-mode:multiply" opacity="0.3">
<g style="mix-blend-mode:multiply" opacity="0.3">
<path d="M39.1794 38.6928V19.6213C39.1784 15.0693 37.5865 10.6608 34.679 7.15839C35.0733 7.69605 35.4449 8.23924 35.794 8.80558C36.1493 9.38058 36.4738 9.974 36.7662 10.5835C37.0177 11.0925 37.235 11.613 37.4351 12.1391C37.4754 12.2367 37.5096 12.3393 37.5498 12.4424C37.7852 13.0719 37.9876 13.7132 38.1564 14.3637C38.3279 15.0117 38.4652 15.6683 38.5678 16.3307C38.6594 16.9925 38.7332 17.6575 38.7624 18.3209C38.7917 18.9843 38.7856 19.6477 38.7796 20.3337L38.7569 22.3741L38.7282 26.4516V30.529C38.7282 32.1135 38.7378 33.6975 38.7569 35.2809C38.7624 36.2879 38.7796 37.2943 38.7912 38.2946L38.4051 38.2891L37.6331 38.2036L36.8765 38.052L36.1271 37.8408L35.3953 37.5606L34.6922 37.2176L34.0172 36.8173L33.377 36.3596L32.7764 35.8561L32.2101 35.3046L31.6895 34.7096L31.2208 34.0694L30.8089 33.3828L30.4543 32.6659L30.157 31.9226L29.9227 31.1505C30.3616 33.2811 31.5222 35.195 33.2086 36.5692C34.8951 37.9432 37.004 38.6933 39.1794 38.6928Z" fill="white"/>
</g>
</g>
<g style="mix-blend-mode:multiply" opacity="0.3">
<g style="mix-blend-mode:multiply" opacity="0.3">
<path d="M19.6331 39.1733H24.3618V32.4654C24.288 33.5804 24.2477 34.7015 24.1964 35.8166C24.1506 36.8401 24.1165 37.8569 24.0861 38.8815L20.4719 38.79C19.8201 38.7784 19.1853 38.7845 18.5561 38.7349C17.9236 38.6902 17.2938 38.6139 16.6691 38.506C16.046 38.4082 15.4292 38.2746 14.8217 38.1056C14.2048 37.9427 13.5972 37.7461 13.0018 37.5167C12.4129 37.3165 11.835 37.0364 11.2576 36.7844C10.7029 36.4816 10.1255 36.2186 9.59941 35.864C9.04796 35.5497 8.54117 35.1719 8.0206 34.8057C7.76362 34.6227 7.52429 34.4115 7.27724 34.2168C7.02539 34.023 6.78495 33.8149 6.55704 33.5936C6.32818 33.3764 6.08775 33.1646 5.86496 32.9418L5.2032 32.2498C4.98262 32.0292 4.79126 31.7694 4.58005 31.529C4.37987 31.2836 4.16811 31.0487 3.98503 30.7856L3.41923 30.0136L2.90418 29.2074C2.72165 28.9388 2.57332 28.6559 2.41836 28.3802C2.2634 28.1045 2.09244 27.8254 1.96064 27.5337C1.68492 26.9558 1.40588 26.3757 1.18861 25.7663C0.942663 25.1834 0.777227 24.5713 0.570984 23.9708C1.37993 27.4922 3.1465 30.7214 5.67554 33.3019C8.20462 35.8823 11.3978 37.7135 14.9022 38.5931C16.449 38.982 18.0382 39.1768 19.6331 39.1733Z" fill="white"/>
</g>
</g>
</svg>
