<svg width="22" height="24" viewBox="0 0 22 24" fill="none" xmlns="http://www.w3.org/2000/svg">
<path d="M5.39384 22.4555C5.39384 22.9866 4.75175 23.2526 4.37622 22.8771L1.04651 19.5473C0.813716 19.3145 0.813716 18.9371 1.04651 18.7043L4.37622 15.3746C4.75175 14.9991 5.39384 15.265 5.39384 15.7961V17.3375C5.39384 17.6667 5.66072 17.9336 5.98994 17.9336H16.7198C17.049 17.9336 17.3159 17.6667 17.3159 17.3375V13.7609C17.3159 13.4317 17.5828 13.1648 17.912 13.1648H19.1042C19.4335 13.1648 19.7004 13.4317 19.7004 13.7609V19.1258C19.7004 19.7843 19.1666 20.318 18.5081 20.318H5.98994C5.66072 20.318 5.39384 20.5849 5.39384 20.9141V22.4555ZM5.39384 10.1843C5.39384 10.5135 5.12695 10.7804 4.79773 10.7804H3.60552C3.2763 10.7804 3.00942 10.5135 3.00942 10.1843V4.81931C3.00942 4.16088 3.54319 3.6271 4.20163 3.6271H16.7198C17.049 3.6271 17.3159 3.36022 17.3159 3.031V1.4896C17.3159 0.958527 17.958 0.692566 18.3335 1.06809L21.6633 4.3978C21.8961 4.6306 21.8961 5.00803 21.6633 5.24082L18.3335 8.57054C17.958 8.94606 17.3159 8.6801 17.3159 8.14903V6.60763C17.3159 6.27841 17.049 6.01152 16.7198 6.01152H5.98994C5.66072 6.01152 5.39384 6.27841 5.39384 6.60763V10.1843Z" fill="white"/>
</svg>
