<svg width="17" height="5" viewBox="0 0 17 5" fill="none" xmlns="http://www.w3.org/2000/svg">
<path d="M14.3418 4.66608C13.2883 4.66608 12.4342 3.81205 12.4342 2.75855C12.4342 1.70505 13.2883 0.851013 14.3418 0.851013C15.3953 0.851013 16.2493 1.70505 16.2493 2.75855C16.2493 3.26446 16.0483 3.74965 15.6906 4.10738C15.3329 4.46511 14.8477 4.66608 14.3418 4.66608ZM8.61916 4.66608C7.56565 4.66608 6.71162 3.81205 6.71162 2.75855C6.71162 1.70505 7.56565 0.851013 8.61916 0.851013C9.67266 0.851013 10.5267 1.70505 10.5267 2.75855C10.5267 3.26446 10.3257 3.74965 9.96799 4.10738C9.61025 4.46511 9.12507 4.66608 8.61916 4.66608ZM2.89655 4.66608C1.84305 4.66608 0.989014 3.81205 0.989014 2.75855C0.989014 1.70505 1.84305 0.851013 2.89655 0.851013C3.95005 0.851013 4.80408 1.70505 4.80408 2.75855C4.80408 3.26446 4.60311 3.74965 4.24538 4.10738C3.88765 4.46511 3.40246 4.66608 2.89655 4.66608Z" fill="#AFB6B3"/>
</svg>
