<svg width="21" height="18" viewBox="0 0 21 18" fill="none" xmlns="http://www.w3.org/2000/svg">
<path d="M10.4684 17.3425C9.85324 16.7969 9.15795 16.2294 8.42259 15.6257H8.41305C5.82358 13.5083 2.88883 11.1125 1.59266 8.24162C1.16682 7.32765 0.941147 6.33325 0.930736 5.325C0.927892 3.94155 1.48276 2.61533 2.46994 1.6461C3.45713 0.676862 4.7933 0.14642 6.17647 0.174656C7.30251 0.176435 8.40431 0.501876 9.35061 1.11221C9.76642 1.3821 10.1426 1.70856 10.4684 2.08219C10.796 1.71002 11.1723 1.38376 11.5872 1.11221C12.5331 0.501755 13.6346 0.176295 14.7604 0.174656C16.1435 0.14642 17.4797 0.676862 18.4669 1.6461C19.4541 2.61533 20.009 3.94155 20.0061 5.325C19.9964 6.33487 19.7707 7.33096 19.3442 8.24639C18.048 11.1172 15.1142 13.5121 12.5247 15.6257L12.5152 15.6333C11.7789 16.2332 11.0846 16.8007 10.4694 17.3501L10.4684 17.3425ZM6.17647 2.08219C5.28804 2.07107 4.43114 2.41109 3.79205 3.02833C3.17628 3.63318 2.83213 4.46189 2.8382 5.325C2.84908 6.05988 3.01552 6.78413 3.32661 7.45C3.93846 8.68866 4.76404 9.80967 5.7654 10.7615C6.71058 11.7152 7.79787 12.6385 8.73829 13.4149C8.99867 13.6295 9.26382 13.846 9.52896 14.0625L9.69587 14.1989C9.95053 14.4068 10.2138 14.6223 10.4684 14.8341L10.4808 14.8226L10.4865 14.8179H10.4923L10.5009 14.8112H10.5056H10.5104L10.5276 14.7969L10.5667 14.7654L10.5733 14.7597L10.5838 14.752H10.5896L10.5981 14.7444L11.2314 14.2246L11.3974 14.0882C11.6654 13.8698 11.9305 13.6533 12.1909 13.4387C13.1313 12.6623 14.2196 11.74 15.1648 10.7815C16.1663 9.83018 16.9919 8.70946 17.6036 7.47098C17.9203 6.79934 18.0891 6.06752 18.0986 5.325C18.1025 4.46455 17.7586 3.63902 17.1448 3.03596C16.5069 2.41593 15.6499 2.07311 14.7604 2.08219C13.6749 2.07297 12.6372 2.52795 11.9086 3.33258L10.4684 4.99214L9.02823 3.33258C8.29962 2.52795 7.26193 2.07297 6.17647 2.08219Z" fill="#7A8580"/>
</svg>
